<svg width="24" height="25" viewBox="0 0 24 25" fill="none" xmlns="http://www.w3.org/2000/svg">
<path fill-rule="evenodd" clip-rule="evenodd" d="M12 16.5C15.866 16.5 19 13.366 19 9.5C19 5.63401 15.866 2.5 12 2.5C8.13401 2.5 5 5.63401 5 9.5C5 13.366 8.13401 16.5 12 16.5ZM12 6.5C11.7159 6.5 11.5259 6.84084 11.1459 7.52251L11.0476 7.69887C10.9397 7.89258 10.8857 7.98944 10.8015 8.05334C10.7173 8.11725 10.6125 8.14097 10.4028 8.18841L10.2119 8.23161C9.47396 8.39857 9.10501 8.48205 9.01723 8.76432C8.92945 9.04659 9.18097 9.34072 9.68403 9.92898L9.81418 10.0812C9.95713 10.2483 10.0286 10.3319 10.0608 10.4353C10.0929 10.5387 10.0821 10.6502 10.0605 10.8733L10.0408 11.0763C9.96476 11.8612 9.92674 12.2536 10.1565 12.4281C10.3864 12.6025 10.7318 12.4435 11.4227 12.1254L11.6014 12.0431C11.7978 11.9527 11.8959 11.9075 12 11.9075C12.1041 11.9075 12.2022 11.9527 12.3986 12.0431L12.5773 12.1254C13.2682 12.4435 13.6136 12.6025 13.8435 12.4281C14.0733 12.2536 14.0352 11.8612 13.9592 11.0763L13.9395 10.8733C13.9179 10.6502 13.9071 10.5387 13.9392 10.4353C13.9714 10.3319 14.0429 10.2483 14.1858 10.0812L14.316 9.92898C14.819 9.34072 15.0706 9.04659 14.9828 8.76432C14.895 8.48205 14.526 8.39857 13.7881 8.23161L13.5972 8.18841C13.3875 8.14097 13.2827 8.11725 13.1985 8.05334C13.1143 7.98944 13.0603 7.89258 12.9524 7.69887L12.8541 7.52251C12.4741 6.84084 12.2841 6.5 12 6.5Z" fill="#562CA0"/>
<path d="M4.49517 13.4946L2.99206 15.051C2.45194 15.6102 2.18188 15.8898 2.08843 16.1266C1.87548 16.6662 2.05772 17.2648 2.52138 17.5486C2.72486 17.6732 3.09187 17.712 3.82589 17.7897C4.2403 17.8335 4.44755 17.8554 4.6211 17.9219C5.00966 18.0709 5.31191 18.3838 5.45575 18.7861C5.52 18.9658 5.54117 19.1804 5.5835 19.6095C5.65848 20.3695 5.69597 20.7495 5.81628 20.9602C6.09042 21.4403 6.66852 21.629 7.18967 21.4085C7.41837 21.3117 7.68843 21.0321 8.22855 20.4729L10.7106 17.9029C8.01306 17.4924 5.73225 15.814 4.49517 13.4946Z" fill="#562CA0"/>
<path d="M13.2894 17.9029L15.7715 20.4729C16.3116 21.0321 16.5816 21.3117 16.8103 21.4085C17.3315 21.629 17.9096 21.4403 18.1837 20.9602C18.304 20.7495 18.3415 20.3695 18.4165 19.6095C18.4588 19.1804 18.48 18.9658 18.5442 18.7861C18.6881 18.3838 18.9903 18.0709 19.3789 17.9219C19.5525 17.8554 19.7597 17.8335 20.1741 17.7897C20.9081 17.712 21.2751 17.6732 21.4786 17.5486C21.9423 17.2648 22.1245 16.6662 21.9116 16.1266C21.8181 15.8898 21.5481 15.6102 21.0079 15.051L19.5048 13.4946C18.2677 15.814 15.9869 17.4924 13.2894 17.9029Z" fill="#562CA0"/>
</svg>
